<mxfile host="Electron" modified="2024-06-04T23:42:44.583Z" agent="Mozilla/5.0 (Windows NT 10.0; Win64; x64) AppleWebKit/537.36 (KHTML, like Gecko) draw.io/24.1.0 Chrome/120.0.6099.109 Electron/28.1.0 Safari/537.36" etag="LfIrli47orm_bNhXdBUU" version="24.1.0" type="device">
  <diagram name="Страница — 1" id="FdWolhdYbGOuaL3oXlnw">
    <mxGraphModel dx="1098" dy="988" grid="1" gridSize="10" guides="1" tooltips="1" connect="1" arrows="1" fold="1" page="1" pageScale="1" pageWidth="827" pageHeight="1169" math="0" shadow="0">
      <root>
        <mxCell id="0" />
        <mxCell id="1" parent="0" />
        <mxCell id="mE6rLmqKoyVHgspTJvwB-1" value="Приложение AinDevHelper&lt;div style=&quot;font-size: 18px;&quot;&gt;(&quot;хост&quot; для плагинов)&lt;/div&gt;" style="rounded=0;whiteSpace=wrap;html=1;fontSize=18;fillColor=#dae8fc;strokeColor=#6c8ebf;gradientColor=#7ea6e0;" vertex="1" parent="1">
          <mxGeometry x="280" y="240" width="240" height="120" as="geometry" />
        </mxCell>
        <mxCell id="mE6rLmqKoyVHgspTJvwB-4" value="результаты&amp;nbsp;&lt;div&gt;выполнения&lt;br&gt;действий от плагинов&lt;/div&gt;" style="edgeStyle=orthogonalEdgeStyle;rounded=0;orthogonalLoop=1;jettySize=auto;html=1;exitX=1;exitY=0;exitDx=0;exitDy=0;entryX=1;entryY=1;entryDx=0;entryDy=0;dashed=1;fontStyle=1;strokeWidth=2;" edge="1" parent="1" source="mE6rLmqKoyVHgspTJvwB-2" target="mE6rLmqKoyVHgspTJvwB-1">
          <mxGeometry y="-70" relative="1" as="geometry">
            <mxPoint as="offset" />
          </mxGeometry>
        </mxCell>
        <mxCell id="mE6rLmqKoyVHgspTJvwB-14" value="Выполнить&amp;nbsp;&lt;div&gt;действие A2&lt;/div&gt;" style="edgeStyle=orthogonalEdgeStyle;rounded=0;orthogonalLoop=1;jettySize=auto;html=1;entryX=0.75;entryY=0;entryDx=0;entryDy=0;strokeWidth=2;fontColor=#0000FF;strokeColor=#0000FF;fontStyle=3;fontSize=13;" edge="1" parent="1" source="mE6rLmqKoyVHgspTJvwB-2" target="mE6rLmqKoyVHgspTJvwB-5">
          <mxGeometry x="-0.1111" y="10" relative="1" as="geometry">
            <Array as="points">
              <mxPoint x="120" y="570" />
            </Array>
            <mxPoint as="offset" />
          </mxGeometry>
        </mxCell>
        <mxCell id="mE6rLmqKoyVHgspTJvwB-2" value="Библиотека AinDevHelperPluginLibrary" style="rounded=0;whiteSpace=wrap;html=1;fontSize=18;fillColor=#d5e8d4;strokeColor=#82b366;gradientColor=#97d077;fontStyle=1" vertex="1" parent="1">
          <mxGeometry x="280" y="480" width="240" height="120" as="geometry" />
        </mxCell>
        <mxCell id="mE6rLmqKoyVHgspTJvwB-3" value="обращение к API &lt;br&gt;для взаимодействия с плагинами,&lt;br&gt;запросы к плагинам&lt;br&gt;для выполнения действий" style="endArrow=classic;html=1;rounded=0;exitX=0;exitY=1;exitDx=0;exitDy=0;entryX=0;entryY=0;entryDx=0;entryDy=0;fontStyle=1;strokeWidth=2;" edge="1" parent="1" source="mE6rLmqKoyVHgspTJvwB-1" target="mE6rLmqKoyVHgspTJvwB-2">
          <mxGeometry x="-0.1667" y="-100" width="50" height="50" relative="1" as="geometry">
            <mxPoint x="270" y="460" as="sourcePoint" />
            <mxPoint x="320" y="410" as="targetPoint" />
            <mxPoint as="offset" />
          </mxGeometry>
        </mxCell>
        <mxCell id="mE6rLmqKoyVHgspTJvwB-10" value="зависит от библиотеки,&lt;div&gt;реализует API&lt;/div&gt;" style="edgeStyle=orthogonalEdgeStyle;rounded=0;orthogonalLoop=1;jettySize=auto;html=1;entryX=0;entryY=0.5;entryDx=0;entryDy=0;exitX=0.5;exitY=0;exitDx=0;exitDy=0;dashed=1;fontStyle=1;strokeWidth=2;" edge="1" parent="1" source="mE6rLmqKoyVHgspTJvwB-5" target="mE6rLmqKoyVHgspTJvwB-2">
          <mxGeometry x="-0.0909" y="20" relative="1" as="geometry">
            <Array as="points">
              <mxPoint x="90" y="540" />
            </Array>
            <mxPoint as="offset" />
          </mxGeometry>
        </mxCell>
        <mxCell id="mE6rLmqKoyVHgspTJvwB-5" value="Плагин A" style="rounded=0;whiteSpace=wrap;html=1;fillColor=#ffcd28;gradientColor=#ffa500;strokeColor=#d79b00;fontStyle=1;fontSize=18;" vertex="1" parent="1">
          <mxGeometry x="30" y="680" width="120" height="60" as="geometry" />
        </mxCell>
        <mxCell id="mE6rLmqKoyVHgspTJvwB-11" value="зависит от библиотеки,&lt;div&gt;реализует API&lt;/div&gt;" style="edgeStyle=orthogonalEdgeStyle;rounded=0;orthogonalLoop=1;jettySize=auto;html=1;entryX=0.25;entryY=1;entryDx=0;entryDy=0;dashed=1;fontStyle=1;strokeWidth=2;" edge="1" parent="1" source="mE6rLmqKoyVHgspTJvwB-6" target="mE6rLmqKoyVHgspTJvwB-2">
          <mxGeometry x="-0.3333" y="-70" relative="1" as="geometry">
            <mxPoint x="-70" y="-70" as="offset" />
          </mxGeometry>
        </mxCell>
        <mxCell id="mE6rLmqKoyVHgspTJvwB-6" value="Плагин B" style="rounded=0;whiteSpace=wrap;html=1;fillColor=#ffcd28;gradientColor=#ffa500;strokeColor=#d79b00;fontStyle=1;fontSize=18;" vertex="1" parent="1">
          <mxGeometry x="230" y="680" width="120" height="60" as="geometry" />
        </mxCell>
        <mxCell id="mE6rLmqKoyVHgspTJvwB-12" value="зависит от библиотеки,&lt;div&gt;реализует API&lt;/div&gt;" style="edgeStyle=orthogonalEdgeStyle;rounded=0;orthogonalLoop=1;jettySize=auto;html=1;entryX=0.5;entryY=1;entryDx=0;entryDy=0;dashed=1;fontStyle=1;strokeWidth=2;" edge="1" parent="1" source="mE6rLmqKoyVHgspTJvwB-7" target="mE6rLmqKoyVHgspTJvwB-2">
          <mxGeometry x="-0.4286" y="-61" relative="1" as="geometry">
            <mxPoint x="60" y="51" as="offset" />
          </mxGeometry>
        </mxCell>
        <mxCell id="mE6rLmqKoyVHgspTJvwB-7" value="..." style="rounded=0;whiteSpace=wrap;html=1;fillColor=#ffcd28;gradientColor=#ffa500;strokeColor=#d79b00;fontStyle=1;fontSize=18;" vertex="1" parent="1">
          <mxGeometry x="450" y="680" width="120" height="60" as="geometry" />
        </mxCell>
        <mxCell id="mE6rLmqKoyVHgspTJvwB-13" value="зависит от библиотеки,&lt;br&gt;реализует API" style="edgeStyle=orthogonalEdgeStyle;rounded=0;orthogonalLoop=1;jettySize=auto;html=1;entryX=1;entryY=0.5;entryDx=0;entryDy=0;dashed=1;fontStyle=1;strokeWidth=2;" edge="1" parent="1" source="mE6rLmqKoyVHgspTJvwB-8" target="mE6rLmqKoyVHgspTJvwB-2">
          <mxGeometry x="0.2222" relative="1" as="geometry">
            <Array as="points">
              <mxPoint x="740" y="540" />
            </Array>
            <mxPoint as="offset" />
          </mxGeometry>
        </mxCell>
        <mxCell id="mE6rLmqKoyVHgspTJvwB-8" value="Плагин X" style="rounded=0;whiteSpace=wrap;html=1;fillColor=#ffcd28;gradientColor=#ffa500;strokeColor=#d79b00;fontStyle=1;fontSize=18;" vertex="1" parent="1">
          <mxGeometry x="690" y="680" width="120" height="60" as="geometry" />
        </mxCell>
        <mxCell id="mE6rLmqKoyVHgspTJvwB-15" value="&lt;b&gt;Поддерживаемые действия:&lt;/b&gt;&lt;br&gt;&lt;ul&gt;&lt;li&gt;действие A1&lt;/li&gt;&lt;li&gt;&lt;font color=&quot;#0000ff&quot;&gt;&lt;b&gt;действие A2&lt;/b&gt;&lt;/font&gt;&lt;/li&gt;&lt;li&gt;...&lt;/li&gt;&lt;li&gt;действие An&lt;/li&gt;&lt;/ul&gt;" style="text;html=1;align=left;verticalAlign=middle;whiteSpace=wrap;rounded=0;" vertex="1" parent="1">
          <mxGeometry x="2.5" y="750" width="175" height="110" as="geometry" />
        </mxCell>
        <mxCell id="mE6rLmqKoyVHgspTJvwB-16" value="&lt;b&gt;Поддерживаемые действия:&lt;/b&gt;&lt;br&gt;&lt;ul&gt;&lt;li&gt;действие B1&lt;/li&gt;&lt;li&gt;действие B2&lt;/li&gt;&lt;li&gt;...&lt;/li&gt;&lt;li&gt;действие Bn&lt;/li&gt;&lt;/ul&gt;" style="text;html=1;align=left;verticalAlign=middle;whiteSpace=wrap;rounded=0;" vertex="1" parent="1">
          <mxGeometry x="200" y="750" width="180" height="110" as="geometry" />
        </mxCell>
        <mxCell id="mE6rLmqKoyVHgspTJvwB-17" value="&lt;b&gt;Поддерживаемые действия:&lt;/b&gt;&lt;br&gt;&lt;ul&gt;&lt;li&gt;действие C1&lt;/li&gt;&lt;li&gt;действие C2&lt;/li&gt;&lt;li&gt;...&lt;/li&gt;&lt;li&gt;действие Cn&lt;/li&gt;&lt;/ul&gt;" style="text;html=1;align=left;verticalAlign=middle;whiteSpace=wrap;rounded=0;" vertex="1" parent="1">
          <mxGeometry x="430" y="750" width="180" height="110" as="geometry" />
        </mxCell>
        <mxCell id="mE6rLmqKoyVHgspTJvwB-18" value="&lt;b&gt;Поддерживаемые действия:&lt;/b&gt;&lt;br&gt;&lt;ul&gt;&lt;li&gt;действие X1&lt;/li&gt;&lt;li&gt;действие X2&lt;/li&gt;&lt;li&gt;...&lt;/li&gt;&lt;li&gt;действие Xn&lt;/li&gt;&lt;/ul&gt;" style="text;html=1;align=left;verticalAlign=middle;whiteSpace=wrap;rounded=0;" vertex="1" parent="1">
          <mxGeometry x="660" y="750" width="180" height="110" as="geometry" />
        </mxCell>
        <mxCell id="mE6rLmqKoyVHgspTJvwB-19" value="Выполнить действие A2,&lt;br style=&quot;font-size: 13px;&quot;&gt;поддерживаемое&amp;nbsp;&lt;br style=&quot;font-size: 13px;&quot;&gt;плагином A" style="edgeStyle=orthogonalEdgeStyle;rounded=0;orthogonalLoop=1;jettySize=auto;html=1;entryX=0.5;entryY=0;entryDx=0;entryDy=0;strokeWidth=2;strokeColor=#0000FF;fontStyle=1;fontSize=13;fontColor=#0000FF;" edge="1" parent="1" source="mE6rLmqKoyVHgspTJvwB-1" target="mE6rLmqKoyVHgspTJvwB-2">
          <mxGeometry relative="1" as="geometry" />
        </mxCell>
      </root>
    </mxGraphModel>
  </diagram>
</mxfile>
